<?xml version="1.0" encoding="utf-8"?>
<!-- Generator: Adobe Illustrator 23.0.1, SVG Export Plug-In . SVG Version: 6.00 Build 0)  -->
<svg version="1.1" id="图层_1" xmlns="http://www.w3.org/2000/svg" xmlns:xlink="http://www.w3.org/1999/xlink" x="0px" y="0px"
	 viewBox="0 0 70 70" style="enable-background:new 0 0 70 70;" xml:space="preserve">
<style type="text/css">
	.st0{fill:#333333;}
</style>
<g id="页面-1">
	<g id="首页-时间选择-copy-10" transform="translate(-30.000000, -170.000000)">
		<g id="分组-2" transform="translate(30.000000, 170.000000)">
			<g id="矩形-copy-378">
				<path class="st0" d="M2.5,65h65c1.4,0,2.5-1.1,2.5-2.5v-55C70,6.1,68.9,5,67.5,5h-65C1.1,5,0,6.1,0,7.5v55C0,63.9,1.1,65,2.5,65
					z M67.5,6C68.3,6,69,6.7,69,7.5v55c0,0.8-0.7,1.5-1.5,1.5h-65C1.7,64,1,63.3,1,62.5v-55C1,6.7,1.7,6,2.5,6H67.5z"/>
			</g>
			<path class="st0" d="M50.5,35.4c0,0.1,0,0.1-0.1,0.2c0,0.1-0.1,0.2-0.2,0.3c0,0-0.1,0.1-0.1,0.2l-9.4,10
				c-0.3,0.3-0.7,0.5-1.1,0.5c-0.1,0-0.2,0-0.3,0c-0.5-0.1-0.9-0.5-1.1-1c-0.2-0.5,0-1.1,0.3-1.5l7-7.5l-25.6,0
				c-0.8,0-1.4-0.7-1.4-1.5c0-0.8,0.6-1.5,1.5-1.5h25.6l-7-7.4c-0.4-0.4-0.5-1-0.4-1.5c0.2-0.5,0.6-0.9,1.1-1.1
				c0.5-0.1,1.1,0.1,1.4,0.5l9.4,10c0.1,0.1,0.1,0.1,0.2,0.2c0.1,0.1,0.1,0.2,0.1,0.2c0,0.1,0.1,0.2,0.1,0.2c0,0,0,0,0,0
				c0,0,0,0,0,0c0,0,0,0.2,0,0.3C50.5,35.1,50.5,35.2,50.5,35.4C50.5,35.3,50.5,35.3,50.5,35.4z M50,35.3C50,35.3,50,35.3,50,35.3
				L50,35.3L50,35.3z"/>
		</g>
	</g>
</g>
</svg>
