<?xml version="1.0" encoding="utf-8"?>
<!-- Generator: Adobe Illustrator 23.0.1, SVG Export Plug-In . SVG Version: 6.00 Build 0)  -->
<svg version="1.1" id="图层_1" xmlns="http://www.w3.org/2000/svg" xmlns:xlink="http://www.w3.org/1999/xlink" x="0px" y="0px"
	 viewBox="0 0 70 70" style="enable-background:new 0 0 70 70;" xml:space="preserve">
<style type="text/css">
	.st0{fill:#333333;}
</style>
<g id="页面-1">
	<g id="首页-时间选择-copy-10" transform="translate(-30.000000, -170.000000)">
		<g id="分组-2" transform="translate(30.000000, 170.000000)">
			<g id="矩形-copy-378">
				<path class="st0" d="M67.5,65h-65C1.1,65,0,63.9,0,62.5v-55C0,6.1,1.1,5,2.5,5h65C68.9,5,70,6.1,70,7.5v55
					C70,63.9,68.9,65,67.5,65z M2.5,6C1.7,6,1,6.7,1,7.5v55C1,63.3,1.7,64,2.5,64h65c0.8,0,1.5-0.7,1.5-1.5v-55
					C69,6.7,68.3,6,67.5,6H2.5z"/>
			</g>
			<path class="st0" d="M19.5,35.4c0,0.1,0,0.1,0.1,0.2c0,0.1,0.1,0.2,0.2,0.3c0,0,0.1,0.1,0.1,0.2l9.4,10c0.3,0.3,0.7,0.5,1.1,0.5
				c0.1,0,0.2,0,0.3,0c0.5-0.1,0.9-0.5,1.1-1c0.2-0.5,0-1.1-0.3-1.5l-7-7.5l25.6,0c0.8,0,1.4-0.7,1.4-1.5c0-0.8-0.6-1.5-1.5-1.5
				H24.5l7-7.4c0.4-0.4,0.5-1,0.4-1.5c-0.2-0.5-0.6-0.9-1.1-1.1c-0.5-0.1-1.1,0.1-1.4,0.5l-9.4,10c-0.1,0.1-0.1,0.1-0.2,0.2
				c-0.1,0.1-0.1,0.2-0.1,0.2c0,0.1-0.1,0.2-0.1,0.2c0,0,0,0,0,0c0,0,0,0,0,0c0,0,0,0.2,0,0.3C19.5,35.1,19.5,35.2,19.5,35.4
				C19.5,35.3,19.5,35.3,19.5,35.4z M20,35.3C20,35.3,20,35.3,20,35.3L20,35.3L20,35.3z"/>
		</g>
	</g>
</g>
</svg>
