<?xml version="1.0" encoding="UTF-8"?>
<svg width="50px" height="50px" viewBox="0 0 50 50" version="1.1" xmlns="http://www.w3.org/2000/svg" xmlns:xlink="http://www.w3.org/1999/xlink">
    <title>dele-黑</title>
    <g id="dele-黑" stroke="none" stroke-width="1" fill="none" fill-rule="evenodd">
        <g id="delete-back-2-fill">
            <polygon id="Path" points="0 0 50 0 50 50 0 50"></polygon>
            <path d="M15.6662993,7 L44.5962993,7 C45.7008688,7 46.5962993,7.89543052 46.5962993,9 L46.5962993,41 C46.5962993,42.1045695 45.7008688,43 44.5962993,43 L15.6662993,43 C14.9977422,43 14.3733485,42.6661395 14.0022993,42.11 L3.33629931,26.11 C2.88790023,25.4379263 2.88790023,24.5620738 3.33629931,23.89 L14.0022993,7.89000002 C14.3733485,7.33386058 14.9977422,7 15.6662993,7 Z M28.5962993,22.172 L22.9402993,16.514 L20.1102993,19.344 L25.7682993,25 L20.1102993,30.656 L22.9402993,33.486 L28.5962993,27.828 L34.2522993,33.486 L37.0822993,30.656 L31.4242993,25 L37.0822993,19.344 L34.2522993,16.514 L28.5962993,22.172 Z" id="Shape" fill="#000000" fill-rule="nonzero"></path>
        </g>
    </g>
</svg>