<?xml version="1.0" standalone="no"?><!DOCTYPE svg PUBLIC "-//W3C//DTD SVG 1.1//EN" "http://www.w3.org/Graphics/SVG/1.1/DTD/svg11.dtd"><svg t="1576137983722" class="icon" viewBox="0 0 1024 1024" version="1.1" xmlns="http://www.w3.org/2000/svg" p-id="6270" xmlns:xlink="http://www.w3.org/1999/xlink" width="200" height="200"><defs><style type="text/css"></style></defs><path d="M512 4.44451142c-276.76325007 0-501.09488253 224.33163246-501.09488253 501.09488253s224.33163246 501.09488253 501.09488253 501.09488252c276.76325007 0 501.09488253-224.33163246 501.09488253-501.09488252s-224.33163246-501.09488253-501.09488253-501.09488253zM494.06524452 218.6814323c29.89163082 0 54.29378134 24.30513958 54.29378134 54.29489638s-24.30513958 54.19677041-54.29489641 54.19677043-54.2948964-24.30513958-54.2948964-54.29489641c0.09812599-29.89163082 24.40326559-54.19677041 54.2948964-54.1967704zM583.54388499 792.3973556h-143.08553986c-20.09129721 0-36.35902586-16.26884374-36.35902584-36.35902586s16.26884374-36.35902586 36.35902584-36.35902585h35.18374408v-248.24426807h-35.28187005c-19.99317121 0-36.35902586-16.26884374-36.35902587-36.35902587s16.26772865-36.35902586 36.35902587-36.35902585h72.13152587c19.79691923 0 35.77138497 16.07259173 35.77138497 35.77138496v285.19204991h35.28187007c20.09129721 0 36.35902586 16.26884374 36.35902585 36.35902585s-16.26884374 36.35902586-36.35902585 36.35902586v0z" p-id="6271"></path></svg>