<?xml version="1.0" standalone="no"?><!DOCTYPE svg PUBLIC "-//W3C//DTD SVG 1.1//EN" "http://www.w3.org/Graphics/SVG/1.1/DTD/svg11.dtd"><svg t="1579417219178" class="icon" viewBox="0 0 1024 1024" version="1.1" xmlns="http://www.w3.org/2000/svg" p-id="4597" xmlns:xlink="http://www.w3.org/1999/xlink" width="200" height="200"><defs><style type="text/css"></style></defs><path d="M938.666667 1024h-853.333334C37.546667 1024 0 986.453333 0 938.666667v-853.333334C0 37.546667 37.546667 0 85.333333 0h853.333334C986.453333 0 1024 37.546667 1024 85.333333v853.333334c0 47.786667-37.546667 85.333333-85.333333 85.333333zM85.333333 34.133333C58.026667 34.133333 34.133333 58.026667 34.133333 85.333333v853.333334c0 27.306667 23.893333 51.2 51.2 51.2h853.333334c27.306667 0 51.2-23.893333 51.2-51.2v-853.333334c0-27.306667-23.893333-51.2-51.2-51.2h-853.333334z" p-id="4598" fill="#999999"></path></svg>