<?xml version="1.0" encoding="utf-8"?>
<!-- Generator: Adobe Illustrator 23.0.1, SVG Export Plug-In . SVG Version: 6.00 Build 0)  -->
<svg version="1.1" id="图层_1" xmlns="http://www.w3.org/2000/svg" xmlns:xlink="http://www.w3.org/1999/xlink" x="0px" y="0px"
	 viewBox="0 0 30 30" style="enable-background:new 0 0 30 30;" xml:space="preserve">
<style type="text/css">
	.st0{fill-rule:evenodd;clip-rule:evenodd;}
	.st1{fill:none;}
	.st2{fill-rule:evenodd;clip-rule:evenodd;fill:#FFFFFF;}
</style>
<g id="页面-1">
	<g id="分组管理-新建2" transform="translate(-61.000000, -353.000000)">
		<g id="分组" transform="translate(62.000000, 354.000000)">
			<path id="Fill-1" class="st0" d="M26.3,7.6L11.7,22.1c-0.2,0.2-0.4,0.2-0.6,0.2c-0.2,0-0.6,0-0.8-0.2l-8.7-8.7
				c-0.2-0.2-0.2-0.8,0.2-1.1l0.4-0.4c0.4-0.4,0.9-0.6,1.3-0.2l7.6,7.6L24.6,5.9c0.4-0.4,0.9-0.4,1.3,0.2l0.4,0.4
				C26.5,6.6,26.7,7.2,26.3,7.6 M25.5,0H2.5C1.1,0,0,1.1,0,2.5v23.1C0,26.9,1.1,28,2.5,28h23.1c1.3,0,2.5-1.1,2.5-2.5V2.5
				C28,1.1,26.9,0,25.5,0"/>
			<path id="Stroke-3" class="st1" d="M26.3,7.6L11.7,22.1c-0.2,0.2-0.4,0.2-0.6,0.2c-0.2,0-0.6,0-0.8-0.2l-8.7-8.7
				c-0.2-0.2-0.2-0.8,0.2-1.1l0.4-0.4c0.4-0.4,0.9-0.6,1.3-0.2l7.6,7.6L24.6,5.9c0.4-0.4,0.9-0.4,1.3,0.2l0.4,0.4
				C26.5,6.6,26.7,7.2,26.3,7.6z M25.5,0H2.5C1.1,0,0,1.1,0,2.5v23.1C0,26.9,1.1,28,2.5,28h23.1c1.3,0,2.5-1.1,2.5-2.5V2.5
				C28,1.1,26.9,0,25.5,0z"/>
			<path id="Fill-5" class="st2" d="M25.4,5.3C25,4.9,24.4,4.9,24,5.1L10.6,18.7L3,11.1c-0.4-0.2-0.9,0-1.3,0.4l-0.4,0.4
				c-0.4,0.4-0.4,1-0.2,1.2l8.7,8.8C10,22,10.2,22,10.6,22c0.2,0,0.4,0,0.6-0.2L25.7,7c0.4-0.4,0.4-1-0.2-1.3L25.4,5.3z"/>
		</g>
	</g>
</g>
</svg>
